{
    "asset" : {
        "generator" : "Khronos glTF Blender I/O v1.6.16",
        "version" : "2.0"
    },
    "scene" : 0,
    "scenes" : [
        {
            "extras" : {
                "network_render" : {
                    "server_address" : "[default]"
                }
            },
            "name" : "Game",
            "nodes" : [
                0,
                6
            ]
        }
    ],
    "nodes" : [
        {
            "mesh" : 0,
            "name" : "Cube.002",
            "translation" : [
                -0.5972596406936646,
                -0.12053897976875305,
                0
            ]
        },
        {
            "name" : "bullet shooter",
            "rotation" : [
                0,
                1,
                0,
                7.549790126404332e-08
            ],
            "translation" : [
                0.8747486472129822,
                0.49839532375335693,
                0
            ]
        },
        {
            "mesh" : 1,
            "name" : "Cube.005"
        },
        {
            "mesh" : 2,
            "name" : "Gun_trigger",
            "translation" : [
                -0.1308179646730423,
                0.24100036919116974,
                0
            ]
        },
        {
            "name" : "muni_rot",
            "rotation" : [
                0.018478892743587494,
                -0.045392945408821106,
                -0.047901857644319534,
                0.9976489543914795
            ],
            "translation" : [
                -0.2943464517593384,
                0.5182422995567322,
                0.05268475413322449
            ]
        },
        {
            "mesh" : 3,
            "name" : "muzzle fire",
            "rotation" : [
                0,
                1,
                0,
                7.549790126404332e-08
            ],
            "scale" : [
                0.00010001659393310547,
                0.00010001659393310547,
                4.559052467811853e-05
            ],
            "translation" : [
                2.2559866905212402,
                0.49839529395103455,
                0
            ]
        },
        {
            "children" : [
                1,
                2,
                3,
                4,
                5
            ],
            "mesh" : 4,
            "name" : "Gun"
        }
    ],
    "materials" : [
        {
            "doubleSided" : true,
            "extras" : {},
            "name" : "handgun",
            "pbrMetallicRoughness" : {
                "baseColorTexture" : {
                    "index" : 0
                },
                "baseColorFactor" : [
                    0.800000011920929,
                    0.800000011920929,
                    0.800000011920929,
                    1
                ],
                "metallicFactor" : 0,
                "roughnessFactor" : 0.5
            }
        },
        {
            "doubleSided" : true,
            "name" : "Material.002",
            "pbrMetallicRoughness" : {
                "baseColorTexture" : {
                    "index" : 0
                },
                "metallicFactor" : 0,
                "roughnessFactor" : 0.5
            }
        },
        {
            "doubleSided" : true,
            "name" : "Fire.001",
            "pbrMetallicRoughness" : {
                "baseColorFactor" : [
                    0.800000011920929,
                    0.800000011920929,
                    0.800000011920929,
                    1
                ],
                "metallicFactor" : 0,
                "roughnessFactor" : 0.5
            }
        },
        {
            "doubleSided" : true,
            "name" : "Material",
            "pbrMetallicRoughness" : {
                "baseColorTexture" : {
                    "index" : 1
                },
                "metallicFactor" : 0,
                "roughnessFactor" : 0.5
            }
        }
    ],
    "meshes" : [
        {
            "name" : "Cube.003",
            "primitives" : [
                {
                    "attributes" : {
                        "POSITION" : 0,
                        "NORMAL" : 1,
                        "TEXCOORD_0" : 2
                    },
                    "indices" : 3,
                    "material" : 0
                }
            ]
        },
        {
            "name" : "Cube.000",
            "primitives" : [
                {
                    "attributes" : {
                        "POSITION" : 4,
                        "NORMAL" : 5,
                        "TEXCOORD_0" : 6
                    },
                    "indices" : 7,
                    "material" : 1
                }
            ]
        },
        {
            "name" : "Cube.002",
            "primitives" : [
                {
                    "attributes" : {
                        "POSITION" : 8,
                        "NORMAL" : 9,
                        "TEXCOORD_0" : 10
                    },
                    "indices" : 11,
                    "material" : 0
                }
            ]
        },
        {
            "name" : "Plane.002",
            "primitives" : [
                {
                    "attributes" : {
                        "POSITION" : 12,
                        "NORMAL" : 13,
                        "TEXCOORD_0" : 14
                    },
                    "indices" : 15,
                    "material" : 2
                }
            ]
        },
        {
            "extras" : {},
            "name" : "Cube.001",
            "primitives" : [
                {
                    "attributes" : {
                        "POSITION" : 16,
                        "NORMAL" : 17,
                        "TEXCOORD_0" : 18
                    },
                    "indices" : 19,
                    "material" : 3
                }
            ]
        }
    ],
    "textures" : [
        {
            "sampler" : 0,
            "source" : 0
        },
        {
            "sampler" : 0,
            "source" : 0
        }
    ],
    "images" : [
        {
            "mimeType" : "image/jpeg",
            "name" : "handgun_C",
            "uri" : "textures/handgun_C_baseColor.jpeg"
        }
    ],
    "accessors" : [
        {
            "bufferView" : 0,
            "componentType" : 5126,
            "count" : 76,
            "max" : [
                0.28768035769462585,
                0.5153701305389404,
                0.07410739362239838
            ],
            "min" : [
                -0.3257295489311218,
                -0.49047207832336426,
                -0.07410739362239838
            ],
            "type" : "VEC3"
        },
        {
            "bufferView" : 1,
            "componentType" : 5126,
            "count" : 76,
            "type" : "VEC3"
        },
        {
            "bufferView" : 2,
            "componentType" : 5126,
            "count" : 76,
            "type" : "VEC2"
        },
        {
            "bufferView" : 3,
            "componentType" : 5123,
            "count" : 168,
            "type" : "SCALAR"
        },
        {
            "bufferView" : 4,
            "componentType" : 5126,
            "count" : 2389,
            "max" : [
                0.8557218909263611,
                0.6452513337135315,
                0.10153103619813919
            ],
            "min" : [
                -0.7594959139823914,
                0.2795625925064087,
                -0.10153103619813919
            ],
            "type" : "VEC3"
        },
        {
            "bufferView" : 5,
            "componentType" : 5126,
            "count" : 2389,
            "type" : "VEC3"
        },
        {
            "bufferView" : 6,
            "componentType" : 5126,
            "count" : 2389,
            "type" : "VEC2"
        },
        {
            "bufferView" : 7,
            "componentType" : 5123,
            "count" : 5610,
            "type" : "SCALAR"
        },
        {
            "bufferView" : 8,
            "componentType" : 5126,
            "count" : 158,
            "max" : [
                0.013585127890110016,
                0.0075545161962509155,
                0.014872955158352852
            ],
            "min" : [
                -0.13160686194896698,
                -0.20116877555847168,
                -0.01616862416267395
            ],
            "type" : "VEC3"
        },
        {
            "bufferView" : 9,
            "componentType" : 5126,
            "count" : 158,
            "type" : "VEC3"
        },
        {
            "bufferView" : 10,
            "componentType" : 5126,
            "count" : 158,
            "type" : "VEC2"
        },
        {
            "bufferView" : 11,
            "componentType" : 5123,
            "count" : 456,
            "type" : "SCALAR"
        },
        {
            "bufferView" : 12,
            "componentType" : 5126,
            "count" : 13,
            "max" : [
                0.09947890043258667,
                0.8283010721206665,
                1.1482884883880615
            ],
            "min" : [
                -1.9005215167999268,
                -0.8075804710388184,
                -1.1482882499694824
            ],
            "type" : "VEC3"
        },
        {
            "bufferView" : 13,
            "componentType" : 5126,
            "count" : 13,
            "type" : "VEC3"
        },
        {
            "bufferView" : 14,
            "componentType" : 5126,
            "count" : 13,
            "type" : "VEC2"
        },
        {
            "bufferView" : 15,
            "componentType" : 5123,
            "count" : 24,
            "type" : "SCALAR"
        },
        {
            "bufferView" : 16,
            "componentType" : 5126,
            "count" : 12976,
            "max" : [
                0.8739969730377197,
                0.566750168800354,
                0.12390205264091492
            ],
            "min" : [
                -0.9756388664245605,
                -0.5238858461380005,
                -0.12586800754070282
            ],
            "type" : "VEC3"
        },
        {
            "bufferView" : 17,
            "componentType" : 5126,
            "count" : 12976,
            "type" : "VEC3"
        },
        {
            "bufferView" : 18,
            "componentType" : 5126,
            "count" : 12976,
            "type" : "VEC2"
        },
        {
            "bufferView" : 19,
            "componentType" : 5123,
            "count" : 59160,
            "type" : "SCALAR"
        }
    ],
    "bufferViews" : [
        {
            "buffer" : 0,
            "byteLength" : 912,
            "byteOffset" : 0
        },
        {
            "buffer" : 0,
            "byteLength" : 912,
            "byteOffset" : 912
        },
        {
            "buffer" : 0,
            "byteLength" : 608,
            "byteOffset" : 1824
        },
        {
            "buffer" : 0,
            "byteLength" : 336,
            "byteOffset" : 2432
        },
        {
            "buffer" : 0,
            "byteLength" : 28668,
            "byteOffset" : 2768
        },
        {
            "buffer" : 0,
            "byteLength" : 28668,
            "byteOffset" : 31436
        },
        {
            "buffer" : 0,
            "byteLength" : 19112,
            "byteOffset" : 60104
        },
        {
            "buffer" : 0,
            "byteLength" : 11220,
            "byteOffset" : 79216
        },
        {
            "buffer" : 0,
            "byteLength" : 1896,
            "byteOffset" : 90436
        },
        {
            "buffer" : 0,
            "byteLength" : 1896,
            "byteOffset" : 92332
        },
        {
            "buffer" : 0,
            "byteLength" : 1264,
            "byteOffset" : 94228
        },
        {
            "buffer" : 0,
            "byteLength" : 912,
            "byteOffset" : 95492
        },
        {
            "buffer" : 0,
            "byteLength" : 156,
            "byteOffset" : 96404
        },
        {
            "buffer" : 0,
            "byteLength" : 156,
            "byteOffset" : 96560
        },
        {
            "buffer" : 0,
            "byteLength" : 104,
            "byteOffset" : 96716
        },
        {
            "buffer" : 0,
            "byteLength" : 48,
            "byteOffset" : 96820
        },
        {
            "buffer" : 0,
            "byteLength" : 155712,
            "byteOffset" : 96868
        },
        {
            "buffer" : 0,
            "byteLength" : 155712,
            "byteOffset" : 252580
        },
        {
            "buffer" : 0,
            "byteLength" : 103808,
            "byteOffset" : 408292
        },
        {
            "buffer" : 0,
            "byteLength" : 118320,
            "byteOffset" : 512100
        }
    ],
    "samplers" : [
        {
            "magFilter" : 9729,
            "minFilter" : 9987
        }
    ],
    "buffers" : [
        {
            "byteLength" : 630420,
            "uri" : "scene.bin"
        }
    ]
}
